<?xml version="1.0" encoding="utf-8"?>
<!-- Generator: Adobe Illustrator 14.0.0, SVG Export Plug-In . SVG Version: 6.00 Build 43363)  -->
<!DOCTYPE svg PUBLIC "-//W3C//DTD SVG 1.1//EN" "http://www.w3.org/Graphics/SVG/1.1/DTD/svg11.dtd">
<svg version="1.1" id="Layer_1" xmlns="http://www.w3.org/2000/svg" xmlns:xlink="http://www.w3.org/1999/xlink" x="0px" y="0px"
	 width="255.882px" height="255.882px" viewBox="0 0 255.882 255.882" enable-background="new 0 0 255.882 255.882"
	 xml:space="preserve">
<g>
	<g>
		<path fill="#CCCCCC" d="M138.265,99.923h-20.8c-3.7,0-6.9,1.3-9.4,3.8c-2.7,2.7-3.9,5.8-3.9,9.5v11.5c0,3.701,1.2,6.8,3.9,9.4
			c2.5,2.6,5.7,3.9,9.4,3.9h20.8c3.7,0,6.8-1.301,9.3-3.9c2.7-2.6,3.9-5.699,3.9-9.4v-11.5c0-3.7-1.2-6.8-3.9-9.5
			C145.065,101.223,141.965,99.923,138.265,99.923z"/>
	</g>
	<g>
		<path fill="#FFFFFF" d="M136.565,98.223h-16.8c-2.9,0-5.5,1.1-7.5,3.2c-2.1,2-3.1,4.6-3.1,7.5v9.3c0,3,1,5.6,3.1,7.6
			c2,2.101,4.6,3.101,7.5,3.101h16.8c2.9,0,5.5-1,7.5-3.101c2.2-2,3.2-4.6,3.2-7.6v-9.3c0-2.9-1-5.5-3.2-7.5
			C142.065,99.323,139.465,98.223,136.565,98.223z"/>
	</g>
</g>
<g>
	<g>
		<path fill="#CCCCCC" d="M138.265,145.323h-20.8c-3.7,0-6.9,1.2-9.4,3.899c-2.7,2.601-3.9,5.701-3.9,9.301v11.6
			c0,3.7,1.2,6.801,3.9,9.4c2.5,2.6,5.7,3.9,9.4,3.9h20.8c3.7,0,6.8-1.301,9.3-3.9c2.7-2.6,3.9-5.7,3.9-9.4v-11.6
			c0-3.6-1.2-6.7-3.9-9.301C145.065,146.523,141.965,145.323,138.265,145.323z"/>
	</g>
	<g>
		<path fill="#FFFFFF" d="M136.565,143.623h-16.8c-2.9,0-5.5,1.1-7.5,3.2c-2.1,2.101-3.1,4.601-3.1,7.5v9.3c0,3,1,5.6,3.1,7.6
			c2,2.101,4.6,3.101,7.5,3.101h16.8c2.9,0,5.5-1,7.5-3.101c2.2-2,3.2-4.6,3.2-7.6v-9.3c0-2.899-1-5.399-3.2-7.5
			C142.065,144.722,139.465,143.623,136.565,143.623z"/>
	</g>
</g>
<g>
	<g>
		<path fill="#CCCCCC" d="M194.565,145.323h-20.8c-3.7,0-6.8,1.2-9.4,3.899c-2.6,2.601-3.899,5.701-3.899,9.301v11.6
			c0,3.7,1.3,6.801,3.899,9.4c2.601,2.6,5.7,3.9,9.4,3.9h20.8c3.7,0,6.9-1.301,9.4-3.9c2.6-2.6,3.899-5.7,3.899-9.4v-11.6
			c0-3.6-1.3-6.7-3.899-9.301C201.465,146.523,198.265,145.323,194.565,145.323z"/>
	</g>
	<g>
		<path fill="#FFFFFF" d="M192.965,143.623h-16.8c-2.9,0-5.5,1.1-7.601,3.2c-2.1,2.101-3.1,4.601-3.1,7.5v9.3c0,3,1,5.6,3.1,7.6
			c2.101,2.101,4.7,3.101,7.601,3.101h16.8c2.899,0,5.399-1,7.5-3.101c2.1-2,3.1-4.6,3.1-7.6v-9.3c0-2.899-1-5.399-3.1-7.5
			C198.365,144.722,195.865,143.623,192.965,143.623z"/>
	</g>
</g>
<g>
	<g>
		<path fill="#CCCCCC" d="M80.365,145.323h-20.8c-3.6,0-6.8,1.2-9.4,3.899c-2.6,2.601-3.9,5.701-3.9,9.301v11.6
			c0,3.7,1.3,6.801,3.9,9.4s5.8,3.9,9.4,3.9h20.8c3.7,0,6.9-1.301,9.4-3.9c2.6-2.6,3.9-5.7,3.9-9.4v-11.6c0-3.6-1.3-6.7-3.9-9.301
			C87.265,146.523,84.065,145.323,80.365,145.323z"/>
	</g>
	<g>
		<path fill="#FFFFFF" d="M78.665,143.623h-16.7c-3,0-5.5,1.1-7.6,3.2s-3.1,4.601-3.1,7.5v9.3c0,3,1,5.6,3.1,7.6
			c2.1,2.101,4.6,3.101,7.6,3.101h16.7c3,0,5.5-1,7.6-3.101c2-2,3.1-4.6,3.1-7.6v-9.3c0-2.899-1.1-5.399-3.1-7.5
			C84.165,144.722,81.665,143.623,78.665,143.623z"/>
	</g>
</g>
<g>
	<path fill="#333333" d="M123.765,121.623h7.5v-9.7h4.8l-8.6-8.5l-8.4,8.5h4.7V121.623z"/>
</g>
<g>
	<path fill="#333333" d="M176.365,154.823v7.399h9.7v4.801l8.5-8.5l-8.5-8.5v4.8H176.365z"/>
</g>
<g>
	<path fill="#333333" d="M79.065,162.222v-7.5h-9.7v-4.799l-8.5,8.6l8.5,8.4v-4.701H79.065z"/>
</g>
<g>
	<path fill="#333333" d="M131.265,150.023h-7.5v9.8h-4.7l8.5,8.399l8.5-8.399h-4.8V150.023z"/>
</g>
<g>
	<g>
		<path fill="#CCCCCC" d="M137.964,195.123h-20.8c-3.7,0-6.8,1.2-9.4,3.9c-2.6,2.6-3.9,5.699-3.9,9.3v11.601
			c0,3.699,1.3,6.799,3.9,9.399s5.7,3.899,9.4,3.899h20.8c3.7,0,6.9-1.299,9.4-3.899c2.6-2.601,3.9-5.7,3.9-9.399v-11.601
			c0-3.601-1.301-6.7-3.9-9.3C144.865,196.323,141.665,195.123,137.964,195.123z"/>
	</g>
	<g>
		<path fill="#FFFFFF" d="M136.365,193.423h-16.8c-2.9,0-5.5,1.1-7.6,3.199c-2.1,2.1-3.1,4.6-3.1,7.5v9.301c0,3,1,5.6,3.1,7.6
			c2.1,2.1,4.7,3.1,7.6,3.1h16.8c2.9,0,5.4-1,7.5-3.1c2.1-2,3.1-4.6,3.1-7.6v-9.301c0-2.9-1-5.4-3.1-7.5
			S139.265,193.423,136.365,193.423z"/>
	</g>
</g>
<g>
	<g>
		<path fill="#CCCCCC" d="M146.285,21.151h-36.139c-6.429,0-11.814,2.085-16.332,6.776c-4.517,4.518-6.776,9.904-6.776,16.159V64.24
			c0,6.428,2.259,11.814,6.776,16.332c4.518,4.518,9.903,6.776,16.332,6.776h36.139c6.429,0,11.988-2.258,16.332-6.776
			c4.518-4.518,6.775-9.904,6.775-16.332V44.085c0-6.255-2.258-11.641-6.775-16.159C158.273,23.236,152.713,21.151,146.285,21.151z"
			/>
	</g>
	<g>
		<path fill="#FFFFFF" d="M143.505,18.198h-29.19c-5.038,0-9.556,1.91-13.205,5.559c-3.648,3.648-5.385,7.992-5.385,13.031v16.159
			c0,5.212,1.737,9.729,5.385,13.204c3.649,3.649,8.167,5.386,13.205,5.386h29.19c5.038,0,9.382-1.737,13.031-5.386
			c3.647-3.475,5.385-7.991,5.385-13.204V36.788c0-5.039-1.737-9.382-5.385-13.031C152.887,20.108,148.543,18.198,143.505,18.198z"
			/>
	</g>
</g>
<g>
	<path fill="#333333" d="M115.582,47.552l-0.816,1.536v5.161h-2.64V37.448h2.64v7.32l3.504-7.32h2.592l-3.672,7.488l3.672,9.313
		h-2.712L115.582,47.552z"/>
	<path fill="#333333" d="M124.701,44.528h3.625v2.4h-3.625v4.92h4.561v2.4h-7.201V37.448h7.201v2.4h-4.561V44.528z"/>
	<path fill="#333333" d="M133.365,48.681l-3.336-11.233h2.76l2.017,7.656l2.017-7.656h2.52l-3.336,11.233v5.568h-2.641V48.681z"/>
	<path fill="#333333" d="M143.781,37.255c2.568,0,3.889,1.536,3.889,4.225v0.648h-2.496v-0.816c0-1.2-0.48-1.656-1.32-1.656
		s-1.32,0.456-1.32,1.656c0,3.456,5.16,4.104,5.16,8.905c0,2.688-1.344,4.224-3.936,4.224c-2.593,0-3.937-1.536-3.937-4.224v-1.152
		h2.496v1.32c0,1.2,0.528,1.632,1.368,1.632s1.368-0.432,1.368-1.632c0-3.457-5.161-4.104-5.161-8.905
		C139.892,38.792,141.212,37.255,143.781,37.255z"/>
</g>
</svg>
